<svg width="48" height="48" viewBox="0 0 48 48" fill="none" xmlns="http://www.w3.org/2000/svg">
<g clip-path="url(#clip0_842_305)">
<mask id="mask0_842_305" style="mask-type:alpha" maskUnits="userSpaceOnUse" x="0" y="0" width="48" height="48">
<rect width="48" height="48" fill="#D9D9D9"/>
</mask>
<g mask="url(#mask0_842_305)">
<path d="M23.75 44L33 20H36.95L46.2 44H42.95L40.7 38.15H29.2L26.95 44H23.75ZM8.1 37.95L6 35.85L16.05 25.8C14.35 24.0333 12.925 22.2417 11.775 20.425C10.625 18.6083 9.75 16.8 9.15 15H12.4C12.9333 16.4333 13.6583 17.85 14.575 19.25C15.4917 20.65 16.7 22.1167 18.2 23.65C19.7333 22.05 21.15 20.0917 22.45 17.775C23.75 15.4583 24.6833 13.2 25.25 11H2V8H16.5V4H19.5V8H34V11H28.35C27.7833 13.6 26.7583 16.2583 25.275 18.975C23.7917 21.6917 22.1333 23.9833 20.3 25.85L25.4 31.05L24.2 34.2L18.15 27.95L8.1 37.95ZM30.25 35.4H39.65L34.95 23L30.25 35.4Z" fill="#1C1B1F"/>
</g>
</g>
<defs>
<clipPath id="clip0_842_305">
<rect width="48" height="48" fill="white"/>
</clipPath>
</defs>
</svg>
