<?xml version="1.0" encoding="UTF-8"?><svg id="Capa_1" xmlns="http://www.w3.org/2000/svg" viewBox="0 0 293.43 41.5"><defs><style>.cls-1{fill:#1d1d1b;}.cls-2{fill:#fff;}.cls-3{fill:#00a19b;}.cls-4{fill:#ffb71b;}</style></defs><path class="cls-4" d="M0,6.08c2.64-.47,6.07-.71,9.65-.71,6.07,0,10.03.99,13.04,3.29,3.29,2.45,5.36,6.4,5.36,12.05,0,6.07-2.21,10.26-5.22,12.85-3.34,2.78-8.47,4.09-14.69,4.09-3.72,0-6.4-.23-8.14-.47V6.08ZM7.15,31.92c.61.14,1.65.14,2.5.14,6.54.05,10.83-3.53,10.83-11.11,0-6.83-3.86-10.07-10.07-10.07-1.55,0-2.64.14-3.25.28v20.76Z"/><path class="cls-4" d="M52.43,29.95c0,3.01.1,5.46.19,7.39h-6.21l-.33-3.25h-.14c-.89,1.41-3.06,3.77-7.2,3.77-4.71,0-8.1-2.92-8.1-10.03v-13.51h7.15v12.38c0,3.34,1.08,5.37,3.62,5.37,1.98,0,3.15-1.37,3.58-2.49.19-.42.28-.94.28-1.55v-13.7h7.15v15.63Z"/><path class="cls-4" d="M66.96,37.85c-6.73,0-11.91-4.42-11.91-11.86s4.89-12.19,12.33-12.19c7.01,0,11.72,4.85,11.72,11.81,0,8.38-5.98,12.24-12.1,12.24h-.05ZM67.1,32.72c2.82,0,4.56-2.78,4.56-6.92,0-3.39-1.32-6.87-4.56-6.87s-4.71,3.48-4.71,6.92c0,3.91,1.65,6.87,4.66,6.87h.05Z"/><path class="cls-4" d="M100.15,36.77c-1.27.61-3.67,1.08-6.4,1.08-7.44,0-12.19-4.56-12.19-11.81,0-6.73,4.61-12.24,13.18-12.24,1.88,0,3.95.33,5.46.89l-1.13,5.32c-.85-.38-2.12-.71-4-.71-3.77,0-6.21,2.68-6.17,6.45,0,4.24,2.83,6.5,6.31,6.5,1.7,0,3.01-.28,4.1-.75l.85,5.27Z"/><path class="cls-1" d="M113.82,8.11v16.92c0,5.06,1.92,7.63,5.32,7.63s5.41-2.44,5.41-7.63V8.11h6.63v16.49c0,9.07-4.58,13.39-12.26,13.39s-11.78-4.1-11.78-13.48V8.11h6.67Z"/><path class="cls-1" d="M157.45,36.68c-1.22.61-3.97,1.31-7.54,1.31-10.16,0-15.4-6.37-15.4-14.74,0-10.03,7.15-15.61,16.05-15.61,3.45,0,6.06.7,7.24,1.31l-1.35,5.28c-1.35-.57-3.23-1.09-5.58-1.09-5.28,0-9.38,3.19-9.38,9.73,0,5.89,3.49,9.59,9.42,9.59,2.01,0,4.23-.44,5.54-.96l1,5.19Z"/><path class="cls-1" d="M156.89,1.6c.27-.05.65-.09,1.02-.09.57,0,.93.1,1.19.33.21.18.32.46.32.78,0,.54-.34.9-.77,1.05v.02c.32.11.51.4.6.83.13.57.23.97.32,1.13h-.55c-.07-.12-.16-.47-.27-.98-.12-.57-.34-.78-.82-.8h-.5v1.78h-.53V1.6ZM157.42,3.47h.54c.57,0,.93-.31.93-.78,0-.53-.38-.76-.94-.77-.26,0-.44.02-.52.05v1.5Z"/><path class="cls-1" d="M158.09,7.14c-1.97,0-3.57-1.6-3.57-3.57s1.6-3.57,3.57-3.57,3.57,1.6,3.57,3.57-1.6,3.57-3.57,3.57ZM158.09.37c-1.77,0-3.2,1.44-3.2,3.2s1.44,3.2,3.2,3.2,3.2-1.44,3.2-3.2-1.44-3.2-3.2-3.2Z"/><rect class="cls-3" x="164.89" width="128.55" height="18.61"/><path class="cls-2" d="M177.37,6.03h-1.66v-.93h4.37v.93h-1.66v8.18h-1.04V6.03Z"/><path class="cls-2" d="M182.11,5.1v6.11c0,1.64.54,2.19,1.24,2.19.77,0,1.26-.59,1.26-2.19v-6.11h1.04v5.95c0,2.37-.97,3.27-2.33,3.27s-2.26-.89-2.26-3.15v-6.07h1.04Z"/><path class="cls-2" d="M187.26,5.23c.45-.12.99-.18,1.5-.18.91,0,1.58.19,2.05.65.45.46.64,1.07.64,1.79,0,1.16-.54,1.92-1.46,2.34v.03c.68.2,1.03.85,1.23,2.04.2,1.26.39,2.03.51,2.31h-1.05c-.14-.27-.31-1.14-.49-2.26-.2-1.24-.59-1.72-1.49-1.72h-.41v3.97h-1.04V5.23ZM188.3,9.44h.43c1,0,1.66-.73,1.66-1.83s-.43-1.7-1.55-1.72c-.2,0-.41.01-.54.05v3.49Z"/><path class="cls-2" d="M193.83,5.1v9.11h-1.04V5.1h1.04Z"/><path class="cls-2" d="M195.28,13.01c.31.2.85.37,1.31.37.95,0,1.51-.62,1.51-1.54,0-.84-.49-1.35-1.2-1.89-.72-.5-1.72-1.35-1.72-2.53,0-1.38.96-2.39,2.41-2.39.57,0,1.07.18,1.28.34l-.26.89c-.23-.16-.61-.31-1.08-.31-.89,0-1.31.68-1.31,1.3,0,.91.47,1.26,1.34,1.88,1.1.77,1.58,1.61,1.58,2.62,0,1.57-1.11,2.55-2.55,2.55-.62,0-1.29-.2-1.54-.39l.23-.89Z"/><path class="cls-2" d="M205.87,10.29c-.07-1.2-.14-2.54-.09-3.57h-.05c-.2,1.01-.45,2.09-.73,3.16l-1.12,4.27h-.66l-1.07-4.1c-.3-1.16-.57-2.29-.74-3.34h-.04c0,1.07-.05,2.34-.11,3.64l-.18,3.85h-.93l.54-9.11h1.12l1.07,4.16c.31,1.2.54,2.1.73,3.14h.04c.18-1.04.38-1.91.68-3.14l1.03-4.16h1.16l.53,9.11h-.97l-.19-3.92Z"/><path class="cls-2" d="M213.24,9.58c0,3.42-1.18,4.73-2.64,4.73s-2.53-1.61-2.53-4.68,1.08-4.65,2.68-4.65,2.49,1.69,2.49,4.6ZM209.16,9.65c0,1.88.37,3.74,1.51,3.74s1.49-1.99,1.49-3.77-.31-3.72-1.5-3.72-1.5,1.89-1.5,3.75Z"/><path class="cls-2" d="M217.46,14.21v-3.85l-2-5.26h1.1l.81,2.29c.23.64.47,1.35.68,2.05h.03c.19-.7.42-1.39.66-2.1l.77-2.24h1.1l-2.1,5.22v3.89h-1.04Z"/><path class="cls-2" d="M224.62,5.1v3.91h2.55v-3.91h1.04v9.11h-1.04v-4.26h-2.55v4.26h-1.04V5.1h1.04Z"/><path class="cls-2" d="M234.62,9.58c0,3.42-1.18,4.73-2.64,4.73s-2.53-1.61-2.53-4.68,1.08-4.65,2.68-4.65,2.49,1.69,2.49,4.6ZM230.54,9.65c0,1.88.37,3.74,1.51,3.74s1.49-1.99,1.49-3.77-.31-3.72-1.5-3.72-1.5,1.89-1.5,3.75Z"/><path class="cls-2" d="M235.66,13.01c.31.2.85.37,1.31.37.95,0,1.51-.62,1.51-1.54,0-.84-.49-1.35-1.2-1.89-.72-.5-1.72-1.35-1.72-2.53,0-1.38.96-2.39,2.41-2.39.57,0,1.07.18,1.28.34l-.26.89c-.23-.16-.61-.31-1.08-.31-.89,0-1.31.68-1.31,1.3,0,.91.47,1.26,1.34,1.88,1.09.77,1.58,1.61,1.58,2.62,0,1.57-1.11,2.55-2.56,2.55-.62,0-1.28-.2-1.54-.39l.23-.89Z"/><path class="cls-2" d="M240.74,5.23c.42-.11.92-.18,1.51-.18.84,0,1.54.2,2.01.68.45.43.68,1.09.68,1.88,0,.84-.2,1.41-.55,1.87-.5.68-1.34,1.01-2.15,1.01-.18,0-.31,0-.46-.01v3.73h-1.04V5.23ZM241.78,9.6c.12.03.23.04.41.04,1.03,0,1.72-.68,1.72-1.96,0-.93-.39-1.77-1.54-1.77-.24,0-.45.03-.58.07v3.62Z"/><path class="cls-2" d="M247.18,5.1v9.11h-1.04V5.1h1.04Z"/><path class="cls-2" d="M249.89,6.03h-1.66v-.93h4.37v.93h-1.66v8.18h-1.04V6.03Z"/><path class="cls-2" d="M254.1,11.48l-.61,2.73h-1l2.08-9.11h1.15l2.03,9.11h-1.03l-.61-2.73h-2.01ZM255.98,10.64l-.47-2.31c-.13-.65-.26-1.41-.37-2.08h-.05c-.11.69-.24,1.47-.37,2.08l-.47,2.31h1.73Z"/><path class="cls-2" d="M258.88,5.1h1.04v8.23h2.57v.88h-3.61V5.1Z"/><path class="cls-2" d="M264.57,5.1v9.11h-1.04V5.1h1.04Z"/><path class="cls-2" d="M266.22,5.23c.41-.12.88-.18,1.41-.18.96,0,1.64.24,2.14.69.7.61,1.23,1.78,1.23,3.69,0,2.08-.51,3.22-1.09,3.84-.59.68-1.46.99-2.51.99-.42,0-.85-.03-1.16-.09V5.23ZM267.26,13.36c.15.03.3.03.39.03,1.15,0,2.26-.83,2.26-3.92,0-2.3-.7-3.56-2.16-3.56-.16,0-.35.01-.49.05v7.4Z"/><path class="cls-2" d="M273.06,11.48l-.61,2.73h-1l2.08-9.11h1.15l2.03,9.11h-1.03l-.61-2.73h-2.01ZM274.94,10.64l-.47-2.31c-.13-.65-.26-1.41-.36-2.08h-.05c-.11.69-.24,1.47-.36,2.08l-.47,2.31h1.73Z"/><path class="cls-2" d="M277.84,5.23c.41-.12.88-.18,1.41-.18.96,0,1.64.24,2.14.69.7.61,1.23,1.78,1.23,3.69,0,2.08-.51,3.22-1.1,3.84-.59.68-1.46.99-2.51.99-.42,0-.85-.03-1.16-.09V5.23ZM278.88,13.36c.15.03.3.03.39.03,1.15,0,2.26-.83,2.26-3.92,0-2.3-.7-3.56-2.16-3.56-.16,0-.35.01-.49.05v7.4Z"/><rect class="cls-3" x="164.84" y="22.89" width="128.55" height="18.61"/><path class="cls-2" d="M183.55,28.48c.42-.11.92-.18,1.51-.18.84,0,1.54.2,2.01.68.45.43.68,1.09.68,1.88,0,.84-.2,1.41-.55,1.87-.5.68-1.34,1.01-2.15,1.01-.18,0-.31,0-.46-.01v3.73h-1.04v-8.98ZM184.59,32.85c.12.03.23.04.41.04,1.03,0,1.72-.68,1.72-1.96,0-.93-.39-1.77-1.54-1.77-.24,0-.45.03-.58.07v3.62Z"/><path class="cls-2" d="M188.94,28.48c.45-.12.99-.18,1.5-.18.91,0,1.58.19,2.05.65.45.46.64,1.07.64,1.79,0,1.16-.54,1.92-1.46,2.34v.03c.68.2,1.03.85,1.23,2.04.2,1.26.39,2.03.51,2.31h-1.05c-.14-.27-.31-1.14-.49-2.26-.2-1.24-.59-1.72-1.49-1.72h-.41v3.97h-1.04v-8.98ZM189.98,32.69h.43c1,0,1.66-.73,1.66-1.83s-.43-1.7-1.55-1.72c-.2,0-.41.01-.54.05v3.49Z"/><path class="cls-2" d="M199.25,32.84c0,3.42-1.18,4.73-2.64,4.73s-2.53-1.61-2.53-4.68,1.08-4.65,2.68-4.65,2.49,1.69,2.49,4.6ZM195.17,32.9c0,1.88.37,3.74,1.51,3.74s1.49-1.99,1.49-3.77-.31-3.72-1.5-3.72-1.5,1.89-1.5,3.75Z"/><path class="cls-2" d="M204.98,37.23c-.39.16-1.04.31-1.62.31-.8,0-1.54-.22-2.15-.89-.66-.7-1.11-1.96-1.1-3.62.01-3.54,1.83-4.76,3.43-4.76.57,0,1.01.11,1.3.26l-.23.89c-.24-.12-.57-.22-1.05-.22-1.13,0-2.37.91-2.37,3.73s1.07,3.72,2.16,3.72c.35,0,.55-.07.63-.11v-2.97h-1.18v-.87h2.16v4.53Z"/><path class="cls-2" d="M206.39,28.48c.45-.12.99-.18,1.5-.18.91,0,1.58.19,2.05.65.45.46.63,1.07.63,1.79,0,1.16-.54,1.92-1.46,2.34v.03c.68.2,1.03.85,1.23,2.04.2,1.26.39,2.03.51,2.31h-1.05c-.13-.27-.31-1.14-.49-2.26-.2-1.24-.59-1.72-1.49-1.72h-.41v3.97h-1.04v-8.98ZM207.43,32.69h.43c1,0,1.66-.73,1.66-1.83s-.43-1.7-1.55-1.72c-.2,0-.41.01-.54.05v3.49Z"/><path class="cls-2" d="M213.09,34.73l-.61,2.73h-1l2.08-9.11h1.15l2.03,9.11h-1.03l-.61-2.73h-2.01ZM214.97,33.89l-.47-2.31c-.13-.65-.26-1.41-.37-2.08h-.05c-.11.69-.24,1.47-.37,2.08l-.47,2.31h1.73Z"/><path class="cls-2" d="M223.3,33.54c-.07-1.2-.14-2.54-.09-3.57h-.05c-.2,1.01-.45,2.09-.73,3.16l-1.12,4.27h-.66l-1.07-4.1c-.3-1.16-.57-2.29-.74-3.34h-.04c0,1.07-.05,2.34-.11,3.64l-.18,3.85h-.93l.54-9.11h1.12l1.07,4.16c.31,1.2.54,2.1.73,3.14h.04c.18-1.04.38-1.91.68-3.14l1.03-4.16h1.16l.53,9.11h-.97l-.19-3.92Z"/><path class="cls-2" d="M226.88,34.73l-.61,2.73h-1l2.08-9.11h1.15l2.03,9.11h-1.03l-.61-2.73h-2.01ZM228.76,33.89l-.47-2.31c-.13-.65-.26-1.41-.37-2.08h-.05c-.11.69-.24,1.47-.37,2.08l-.47,2.31h1.73Z"/><path class="cls-2" d="M233.78,28.48c.41-.12.88-.18,1.41-.18.96,0,1.64.24,2.14.69.7.61,1.23,1.78,1.23,3.69,0,2.08-.51,3.22-1.09,3.84-.59.68-1.46.99-2.51.99-.42,0-.85-.03-1.16-.09v-8.94ZM234.83,36.61c.15.03.3.03.39.03,1.15,0,2.26-.83,2.26-3.92,0-2.3-.7-3.56-2.16-3.56-.16,0-.35.01-.49.05v7.4Z"/><path class="cls-2" d="M243.12,33.13h-2.29v3.42h2.6v.91h-3.64v-9.11h3.47v.91h-2.43v3h2.29v.88Z"/><path class="cls-2" d="M247.75,28.35v9.11h-1.04v-9.11h1.04Z"/><path class="cls-2" d="M249.39,37.46v-9.11h.99l1.68,4.27c.38.97.85,2.19,1.16,3.18h.03c-.08-1.43-.12-2.61-.12-4.19v-3.26h.93v9.11h-.99l-1.73-4.38c-.37-.92-.76-1.96-1.08-3.1h-.03c.08,1.22.11,2.38.11,4.33v3.15h-.95Z"/><path class="cls-2" d="M260.17,37.23c-.39.16-1.04.31-1.62.31-.8,0-1.54-.22-2.15-.89-.66-.7-1.11-1.96-1.09-3.62.01-3.54,1.83-4.76,3.43-4.76.57,0,1.01.11,1.3.26l-.23.89c-.24-.12-.57-.22-1.05-.22-1.14,0-2.37.91-2.37,3.73s1.07,3.72,2.16,3.72c.35,0,.55-.07.64-.11v-2.97h-1.18v-.87h2.16v4.53Z"/><path class="cls-2" d="M261.57,28.35h1.04v8.23h2.57v.88h-3.61v-9.11Z"/><path class="cls-2" d="M269.55,33.13h-2.29v3.42h2.6v.91h-3.64v-9.11h3.47v.91h-2.43v3h2.29v.88ZM269.97,26.4l-1.69,1.46h-.83l1.28-1.46h1.23Z"/><path class="cls-2" d="M270.8,36.26c.31.2.85.37,1.31.37.95,0,1.51-.62,1.51-1.54,0-.84-.49-1.35-1.2-1.89-.72-.5-1.72-1.35-1.72-2.53,0-1.38.96-2.39,2.41-2.39.57,0,1.07.18,1.28.34l-.26.89c-.23-.16-.61-.31-1.08-.31-.89,0-1.31.68-1.31,1.3,0,.91.47,1.26,1.34,1.88,1.09.77,1.58,1.61,1.58,2.62,0,1.57-1.11,2.55-2.56,2.55-.62,0-1.28-.2-1.54-.39l.23-.89Z"/></svg>