<?xml version="1.0" encoding="UTF-8"?>
<svg id="Capa_1" xmlns="http://www.w3.org/2000/svg" version="1.1" viewBox="0 0 162 84.8">
  <!-- Generator: Adobe Illustrator 29.7.1, SVG Export Plug-In . SVG Version: 2.1.1 Build 8)  -->
  <defs>
    <style>
      .st0 {
        fill: #1d1d1b;
      }

      .st1 {
        fill: #fff;
      }

      .st2 {
        fill: #00a19b;
      }

      .st3 {
        fill: #ffb71b;
      }
    </style>
  </defs>
  <path class="st3" d="M0,6.1c2.6-.5,6.1-.7,9.6-.7,6.1,0,10,1,13,3.3,3.3,2.4,5.4,6.4,5.4,12s-2.2,10.3-5.2,12.8c-3.3,2.8-8.5,4.1-14.7,4.1s-6.4-.2-8.1-.5V6.1ZM7.2,31.9c.6.1,1.6.1,2.5.1,6.5,0,10.8-3.5,10.8-11.1s-3.9-10.1-10.1-10.1-2.6.1-3.2.3v20.8Z"/>
  <path class="st3" d="M52.4,29.9c0,3,0,5.5.2,7.4h-6.2l-.3-3.2h-.1c-.9,1.4-3.1,3.8-7.2,3.8s-8.1-2.9-8.1-10v-13.5h7.2v12.4c0,3.3,1.1,5.4,3.6,5.4s3.2-1.4,3.6-2.5c.2-.4.3-.9.3-1.6v-13.7h7.2v15.6Z"/>
  <path class="st3" d="M67,37.9c-6.7,0-11.9-4.4-11.9-11.9s4.9-12.2,12.3-12.2,11.7,4.8,11.7,11.8-6,12.2-12.1,12.2h0ZM67.1,32.7c2.8,0,4.6-2.8,4.6-6.9s-1.3-6.9-4.6-6.9-4.7,3.5-4.7,6.9,1.6,6.9,4.7,6.9h0Z"/>
  <path class="st3" d="M100.1,36.8c-1.3.6-3.7,1.1-6.4,1.1-7.4,0-12.2-4.6-12.2-11.8s4.6-12.2,13.2-12.2,4,.3,5.5.9l-1.1,5.3c-.8-.4-2.1-.7-4-.7-3.8,0-6.2,2.7-6.2,6.4,0,4.2,2.8,6.5,6.3,6.5s3-.3,4.1-.8l.8,5.3Z"/>
  <path class="st0" d="M113.8,8.1v16.9c0,5.1,1.9,7.6,5.3,7.6s5.4-2.4,5.4-7.6V8.1h6.6v16.5c0,9.1-4.6,13.4-12.3,13.4s-11.8-4.1-11.8-13.5V8.1h6.7Z"/>
  <path class="st0" d="M157.4,36.7c-1.2.6-4,1.3-7.5,1.3-10.2,0-15.4-6.4-15.4-14.7s7.2-15.6,16-15.6,6.1.7,7.2,1.3l-1.4,5.3c-1.4-.6-3.2-1.1-5.6-1.1-5.3,0-9.4,3.2-9.4,9.7s3.5,9.6,9.4,9.6,4.2-.4,5.5-1l1,5.2Z"/>
  <g>
    <path class="st0" d="M156.9,1.6c.3,0,.7,0,1,0,.6,0,.9.1,1.2.3.2.2.3.5.3.8,0,.5-.3.9-.8,1h0c.3.1.5.4.6.8.1.6.2,1,.3,1.1h-.5c0-.1-.2-.5-.3-1-.1-.6-.3-.8-.8-.8h-.5v1.8h-.5V1.6ZM157.4,3.5h.5c.6,0,.9-.3.9-.8s-.4-.8-.9-.8c-.3,0-.4,0-.5,0v1.5Z"/>
    <path class="st0" d="M158.1,7.1c-2,0-3.6-1.6-3.6-3.6s1.6-3.6,3.6-3.6,3.6,1.6,3.6,3.6-1.6,3.6-3.6,3.6ZM158.1.4c-1.8,0-3.2,1.4-3.2,3.2s1.4,3.2,3.2,3.2,3.2-1.4,3.2-3.2-1.4-3.2-3.2-3.2Z"/>
  </g>
  <rect class="st2" x=".3" y="43.3" width="161.7" height="18.6"/>
  <g>
    <path class="st1" d="M29.1,49.2h-1.7v-.9h4.4v.9h-1.7v8.2h-1v-8.2Z"/>
    <path class="st1" d="M33.8,48.3v6.1c0,1.6.5,2.2,1.2,2.2s1.3-.6,1.3-2.2v-6.1h1v5.9c0,2.4-1,3.3-2.3,3.3s-2.3-.9-2.3-3.2v-6.1h1Z"/>
    <path class="st1" d="M39,48.4c.4-.1,1-.2,1.5-.2.9,0,1.6.2,2.1.6.4.5.6,1.1.6,1.8,0,1.2-.5,1.9-1.5,2.3h0c.7.2,1,.9,1.2,2.1.2,1.3.4,2,.5,2.3h-1.1c-.1-.3-.3-1.1-.5-2.3-.2-1.2-.6-1.7-1.5-1.7h-.4v4h-1v-9ZM40,52.6h.4c1,0,1.7-.7,1.7-1.8s-.4-1.7-1.6-1.7c-.2,0-.4,0-.5,0v3.5Z"/>
    <path class="st1" d="M45.6,48.3v9.1h-1v-9.1h1Z"/>
    <path class="st1" d="M47,56.2c.3.2.9.4,1.3.4.9,0,1.5-.6,1.5-1.5s-.5-1.4-1.2-1.9c-.7-.5-1.7-1.4-1.7-2.5s1-2.4,2.4-2.4,1.1.2,1.3.3l-.3.9c-.2-.2-.6-.3-1.1-.3-.9,0-1.3.7-1.3,1.3,0,.9.5,1.3,1.3,1.9,1.1.8,1.6,1.6,1.6,2.6,0,1.6-1.1,2.6-2.6,2.6s-1.3-.2-1.5-.4l.2-.9Z"/>
    <path class="st1" d="M57.6,53.5c0-1.2-.1-2.5,0-3.6h0c-.2,1-.4,2.1-.7,3.2l-1.1,4.3h-.7l-1.1-4.1c-.3-1.2-.6-2.3-.7-3.3h0c0,1.1,0,2.3-.1,3.6l-.2,3.9h-.9l.5-9.1h1.1l1.1,4.2c.3,1.2.5,2.1.7,3.1h0c.2-1,.4-1.9.7-3.1l1-4.2h1.2l.5,9.1h-1l-.2-3.9Z"/>
    <path class="st1" d="M65,52.8c0,3.4-1.2,4.7-2.6,4.7s-2.5-1.6-2.5-4.7,1.1-4.7,2.7-4.7,2.5,1.7,2.5,4.6ZM60.9,52.9c0,1.9.4,3.7,1.5,3.7s1.5-2,1.5-3.8-.3-3.7-1.5-3.7-1.5,1.9-1.5,3.7Z"/>
    <path class="st1" d="M69.2,57.4v-3.9l-2-5.3h1.1l.8,2.3c.2.6.5,1.4.7,2.1h0c.2-.7.4-1.4.7-2.1l.8-2.2h1.1l-2.1,5.2v3.9h-1Z"/>
    <path class="st1" d="M76.4,48.3v3.9h2.6v-3.9h1v9.1h-1v-4.3h-2.6v4.3h-1v-9.1h1Z"/>
    <path class="st1" d="M86.4,52.8c0,3.4-1.2,4.7-2.6,4.7s-2.5-1.6-2.5-4.7,1.1-4.7,2.7-4.7,2.5,1.7,2.5,4.6ZM82.3,52.9c0,1.9.4,3.7,1.5,3.7s1.5-2,1.5-3.8-.3-3.7-1.5-3.7-1.5,1.9-1.5,3.7Z"/>
    <path class="st1" d="M87.4,56.2c.3.2.9.4,1.3.4.9,0,1.5-.6,1.5-1.5s-.5-1.4-1.2-1.9c-.7-.5-1.7-1.4-1.7-2.5s1-2.4,2.4-2.4,1.1.2,1.3.3l-.3.9c-.2-.2-.6-.3-1.1-.3-.9,0-1.3.7-1.3,1.3,0,.9.5,1.3,1.3,1.9,1.1.8,1.6,1.6,1.6,2.6,0,1.6-1.1,2.6-2.6,2.6s-1.3-.2-1.5-.4l.2-.9Z"/>
    <path class="st1" d="M92.5,48.4c.4-.1.9-.2,1.5-.2s1.5.2,2,.7c.4.4.7,1.1.7,1.9s-.2,1.4-.6,1.9c-.5.7-1.3,1-2.1,1s-.3,0-.5,0v3.7h-1v-9ZM93.5,52.8c.1,0,.2,0,.4,0,1,0,1.7-.7,1.7-2s-.4-1.8-1.5-1.8-.4,0-.6,0v3.6Z"/>
    <path class="st1" d="M98.9,48.3v9.1h-1v-9.1h1Z"/>
    <path class="st1" d="M101.6,49.2h-1.7v-.9h4.4v.9h-1.7v8.2h-1v-8.2Z"/>
    <path class="st1" d="M105.8,54.7l-.6,2.7h-1l2.1-9.1h1.1l2,9.1h-1l-.6-2.7h-2ZM107.7,53.8l-.5-2.3c-.1-.6-.3-1.4-.4-2.1h0c-.1.7-.2,1.5-.4,2.1l-.5,2.3h1.7Z"/>
    <path class="st1" d="M110.6,48.3h1v8.2h2.6v.9h-3.6v-9.1Z"/>
    <path class="st1" d="M116.3,48.3v9.1h-1v-9.1h1Z"/>
    <path class="st1" d="M118,48.4c.4-.1.9-.2,1.4-.2,1,0,1.6.2,2.1.7.7.6,1.2,1.8,1.2,3.7s-.5,3.2-1.1,3.8c-.6.7-1.5,1-2.5,1s-.9,0-1.2,0v-8.9ZM119,56.6c.1,0,.3,0,.4,0,1.1,0,2.3-.8,2.3-3.9s-.7-3.6-2.2-3.6-.4,0-.5,0v7.4Z"/>
    <path class="st1" d="M124.8,54.7l-.6,2.7h-1l2.1-9.1h1.1l2,9.1h-1l-.6-2.7h-2ZM126.7,53.8l-.5-2.3c-.1-.6-.3-1.4-.4-2.1h0c-.1.7-.2,1.5-.4,2.1l-.5,2.3h1.7Z"/>
    <path class="st1" d="M129.6,48.4c.4-.1.9-.2,1.4-.2,1,0,1.6.2,2.1.7.7.6,1.2,1.8,1.2,3.7s-.5,3.2-1.1,3.8c-.6.7-1.5,1-2.5,1s-.9,0-1.2,0v-8.9ZM130.6,56.6c.1,0,.3,0,.4,0,1.1,0,2.3-.8,2.3-3.9s-.7-3.6-2.2-3.6-.4,0-.5,0v7.4Z"/>
  </g>
  <rect class="st2" x=".3" y="66.1" width="161.7" height="18.6"/>
  <g>
    <path class="st1" d="M35.6,71.3c.4-.1.9-.2,1.5-.2s1.5.2,2,.7c.4.4.7,1.1.7,1.9s-.2,1.4-.6,1.9c-.5.7-1.3,1-2.1,1s-.3,0-.5,0v3.7h-1v-9ZM36.7,75.7c.1,0,.2,0,.4,0,1,0,1.7-.7,1.7-2s-.4-1.8-1.5-1.8-.4,0-.6,0v3.6Z"/>
    <path class="st1" d="M41,71.3c.4-.1,1-.2,1.5-.2.9,0,1.6.2,2.1.6.4.5.6,1.1.6,1.8,0,1.2-.5,1.9-1.5,2.3h0c.7.2,1,.9,1.2,2.1.2,1.3.4,2,.5,2.3h-1.1c-.1-.3-.3-1.1-.5-2.3-.2-1.2-.6-1.7-1.5-1.7h-.4v4h-1v-9ZM42.1,75.5h.4c1,0,1.7-.7,1.7-1.8s-.4-1.7-1.6-1.7c-.2,0-.4,0-.5,0v3.5Z"/>
    <path class="st1" d="M51.3,75.7c0,3.4-1.2,4.7-2.6,4.7s-2.5-1.6-2.5-4.7,1.1-4.7,2.7-4.7,2.5,1.7,2.5,4.6ZM47.3,75.7c0,1.9.4,3.7,1.5,3.7s1.5-2,1.5-3.8-.3-3.7-1.5-3.7-1.5,1.9-1.5,3.7Z"/>
    <path class="st1" d="M57.1,80.1c-.4.2-1,.3-1.6.3s-1.5-.2-2.1-.9c-.7-.7-1.1-2-1.1-3.6,0-3.5,1.8-4.8,3.4-4.8s1,.1,1.3.3l-.2.9c-.2-.1-.6-.2-1.1-.2-1.1,0-2.4.9-2.4,3.7s1.1,3.7,2.2,3.7.6,0,.6-.1v-3h-1.2v-.9h2.2v4.5Z"/>
    <path class="st1" d="M58.5,71.3c.4-.1,1-.2,1.5-.2.9,0,1.6.2,2.1.6.4.5.6,1.1.6,1.8,0,1.2-.5,1.9-1.5,2.3h0c.7.2,1,.9,1.2,2.1.2,1.3.4,2,.5,2.3h-1.1c-.1-.3-.3-1.1-.5-2.3-.2-1.2-.6-1.7-1.5-1.7h-.4v4h-1v-9ZM59.5,75.5h.4c1,0,1.7-.7,1.7-1.8s-.4-1.7-1.6-1.7c-.2,0-.4,0-.5,0v3.5Z"/>
    <path class="st1" d="M65.2,77.6l-.6,2.7h-1l2.1-9.1h1.1l2,9.1h-1l-.6-2.7h-2ZM67.1,76.7l-.5-2.3c-.1-.6-.3-1.4-.4-2.1h0c-.1.7-.2,1.5-.4,2.1l-.5,2.3h1.7Z"/>
    <path class="st1" d="M75.4,76.4c0-1.2-.1-2.5,0-3.6h0c-.2,1-.4,2.1-.7,3.2l-1.1,4.3h-.7l-1.1-4.1c-.3-1.2-.6-2.3-.7-3.3h0c0,1.1,0,2.3-.1,3.6l-.2,3.9h-.9l.5-9.1h1.1l1.1,4.2c.3,1.2.5,2.1.7,3.1h0c.2-1,.4-1.9.7-3.1l1-4.2h1.2l.5,9.1h-1l-.2-3.9Z"/>
    <path class="st1" d="M79,77.6l-.6,2.7h-1l2.1-9.1h1.1l2,9.1h-1l-.6-2.7h-2ZM80.9,76.7l-.5-2.3c-.1-.6-.3-1.4-.4-2.1h0c-.1.7-.2,1.5-.4,2.1l-.5,2.3h1.7Z"/>
    <path class="st1" d="M85.9,71.3c.4-.1.9-.2,1.4-.2,1,0,1.6.2,2.1.7.7.6,1.2,1.8,1.2,3.7s-.5,3.2-1.1,3.8c-.6.7-1.5,1-2.5,1s-.9,0-1.2,0v-8.9ZM86.9,79.4c.1,0,.3,0,.4,0,1.1,0,2.3-.8,2.3-3.9s-.7-3.6-2.2-3.6-.4,0-.5,0v7.4Z"/>
    <path class="st1" d="M95.2,76h-2.3v3.4h2.6v.9h-3.6v-9.1h3.5v.9h-2.4v3h2.3v.9Z"/>
    <path class="st1" d="M99.8,71.2v9.1h-1v-9.1h1Z"/>
    <path class="st1" d="M101.5,80.3v-9.1h1l1.7,4.3c.4,1,.9,2.2,1.2,3.2h0c0-1.4-.1-2.6-.1-4.2v-3.3h.9v9.1h-1l-1.7-4.4c-.4-.9-.8-2-1.1-3.1h0c0,1.2.1,2.4.1,4.3v3.2h-.9Z"/>
    <path class="st1" d="M112.3,80.1c-.4.2-1,.3-1.6.3s-1.5-.2-2.1-.9c-.7-.7-1.1-2-1.1-3.6,0-3.5,1.8-4.8,3.4-4.8s1,.1,1.3.3l-.2.9c-.2-.1-.6-.2-1.1-.2-1.1,0-2.4.9-2.4,3.7s1.1,3.7,2.2,3.7.6,0,.6-.1v-3h-1.2v-.9h2.2v4.5Z"/>
    <path class="st1" d="M113.7,71.2h1v8.2h2.6v.9h-3.6v-9.1Z"/>
    <path class="st1" d="M121.6,76h-2.3v3.4h2.6v.9h-3.6v-9.1h3.5v.9h-2.4v3h2.3v.9ZM122.1,69.2l-1.7,1.5h-.8l1.3-1.5h1.2Z"/>
    <path class="st1" d="M122.9,79.1c.3.2.9.4,1.3.4.9,0,1.5-.6,1.5-1.5s-.5-1.4-1.2-1.9c-.7-.5-1.7-1.4-1.7-2.5s1-2.4,2.4-2.4,1.1.2,1.3.3l-.3.9c-.2-.2-.6-.3-1.1-.3-.9,0-1.3.7-1.3,1.3,0,.9.5,1.3,1.3,1.9,1.1.8,1.6,1.6,1.6,2.6,0,1.6-1.1,2.6-2.6,2.6s-1.3-.2-1.5-.4l.2-.9Z"/>
  </g>
</svg>