<?xml version="1.0" encoding="UTF-8"?>
<svg id="Capa_1" xmlns="http://www.w3.org/2000/svg" version="1.1" viewBox="0 0 248.6 40.5">
  <!-- Generator: Adobe Illustrator 29.7.1, SVG Export Plug-In . SVG Version: 2.1.1 Build 8)  -->
  <defs>
    <style>
      .st0 {
        fill: #1d1d1b;
      }

      .st1 {
        fill: #fff;
      }

      .st2 {
        fill: #00a19b;
      }

      .st3 {
        fill: #ffb71b;
      }
    </style>
  </defs>
  <path class="st3" d="M0,9.2c2.4-.4,5.6-.7,8.9-.7,5.6,0,9.3.9,12.1,3.1,3.1,2.3,5,5.9,5,11.2s-2,9.5-4.8,11.9c-3.1,2.6-7.8,3.8-13.6,3.8s-5.9-.2-7.5-.4V9.2ZM6.6,33.1c.6.1,1.5.1,2.3.1,6.1,0,10-3.3,10-10.3s-3.6-9.3-9.3-9.3-2.4.1-3,.3v19.2Z"/>
  <path class="st3" d="M48.6,31.3c0,2.8,0,5.1.2,6.8h-5.8l-.3-3h-.1c-.8,1.3-2.8,3.5-6.7,3.5s-7.5-2.7-7.5-9.3v-12.5h6.6v11.5c0,3.1,1,5,3.4,5s2.9-1.3,3.3-2.3c.2-.4.3-.9.3-1.4v-12.7h6.6v14.5Z"/>
  <path class="st3" d="M62,38.6c-6.2,0-11-4.1-11-11s4.5-11.3,11.4-11.3,10.9,4.5,10.9,10.9-5.5,11.3-11.2,11.3h0ZM62.2,33.8c2.6,0,4.2-2.6,4.2-6.4s-1.2-6.4-4.2-6.4-4.4,3.2-4.4,6.4,1.5,6.4,4.3,6.4h0Z"/>
  <path class="st3" d="M92.8,37.6c-1.2.6-3.4,1-5.9,1-6.9,0-11.3-4.2-11.3-10.9s4.3-11.3,12.2-11.3,3.7.3,5.1.8l-1,4.9c-.8-.3-2-.7-3.7-.7-3.5,0-5.8,2.5-5.7,6,0,3.9,2.6,6,5.8,6s2.8-.3,3.8-.7l.8,4.9Z"/>
  <path class="st0" d="M105.4,11v15.7c0,4.7,1.8,7.1,4.9,7.1s5-2.3,5-7.1v-15.7h6.1v15.3c0,8.4-4.2,12.4-11.4,12.4s-10.9-3.8-10.9-12.5v-15.2h6.2Z"/>
  <path class="st0" d="M145.8,37.5c-1.1.6-3.7,1.2-7,1.2-9.4,0-14.3-5.9-14.3-13.7s6.6-14.5,14.9-14.5,5.6.6,6.7,1.2l-1.3,4.9c-1.3-.5-3-1-5.2-1-4.9,0-8.7,3-8.7,9s3.2,8.9,8.7,8.9,3.9-.4,5.1-.9l.9,4.8Z"/>
  <g>
    <path class="st0" d="M145.3,5c.2,0,.6,0,.9,0,.5,0,.9,0,1.1.3.2.2.3.4.3.7,0,.5-.3.8-.7,1h0c.3.1.5.4.6.8.1.5.2.9.3,1h-.5c0-.1-.1-.4-.3-.9-.1-.5-.3-.7-.8-.7h-.5v1.6h-.5v-3.8ZM145.8,6.7h.5c.5,0,.9-.3.9-.7s-.4-.7-.9-.7c-.2,0-.4,0-.5,0v1.4Z"/>
    <path class="st0" d="M146.4,10.1c-1.8,0-3.3-1.5-3.3-3.3s1.5-3.3,3.3-3.3,3.3,1.5,3.3,3.3-1.5,3.3-3.3,3.3ZM146.4,3.9c-1.6,0-3,1.3-3,3s1.3,3,3,3,3-1.3,3-3-1.3-3-3-3Z"/>
  </g>
  <rect class="st2" x="155.6" width="93" height="40.5"/>
  <g>
    <path class="st1" d="M171.1,10.7h-1.8v-1h4.8v1h-1.8v9h-1.1v-9Z"/>
    <path class="st1" d="M176.4,9.7v6.7c0,1.8.6,2.4,1.4,2.4s1.4-.7,1.4-2.4v-6.7h1.1v6.6c0,2.6-1.1,3.6-2.6,3.6s-2.5-1-2.5-3.5v-6.7h1.1Z"/>
    <path class="st1" d="M182,9.9c.5-.1,1.1-.2,1.7-.2,1,0,1.7.2,2.3.7.5.5.7,1.2.7,2,0,1.3-.6,2.1-1.6,2.6h0c.7.3,1.1,1,1.4,2.3.2,1.4.4,2.2.6,2.6h-1.2c-.1-.3-.3-1.3-.5-2.5-.2-1.4-.7-1.9-1.6-1.9h-.4v4.4h-1.1v-9.9ZM183.2,14.5h.5c1.1,0,1.8-.8,1.8-2s-.5-1.9-1.7-1.9c-.2,0-.4,0-.6,0v3.9Z"/>
    <path class="st1" d="M189.3,9.7v10.1h-1.1v-10.1h1.1Z"/>
    <path class="st1" d="M190.9,18.4c.3.2.9.4,1.4.4,1,0,1.7-.7,1.7-1.7s-.5-1.5-1.3-2.1c-.8-.6-1.9-1.5-1.9-2.8s1.1-2.6,2.7-2.6,1.2.2,1.4.4l-.3,1c-.3-.2-.7-.3-1.2-.3-1,0-1.4.7-1.4,1.4,0,1,.5,1.4,1.5,2.1,1.2.9,1.7,1.8,1.7,2.9,0,1.7-1.2,2.8-2.8,2.8s-1.4-.2-1.7-.4l.3-1Z"/>
    <path class="st1" d="M202.6,15.4c0-1.3-.1-2.8-.1-3.9h0c-.2,1.1-.5,2.3-.8,3.5l-1.2,4.7h-.7l-1.2-4.5c-.3-1.3-.6-2.5-.8-3.7h0c0,1.2,0,2.6-.1,4l-.2,4.3h-1l.6-10.1h1.2l1.2,4.6c.3,1.3.6,2.3.8,3.5h0c.2-1.1.4-2.1.7-3.5l1.1-4.6h1.3l.6,10.1h-1.1l-.2-4.3Z"/>
    <path class="st1" d="M210.7,14.7c0,3.8-1.3,5.2-2.9,5.2s-2.8-1.8-2.8-5.2,1.2-5.1,3-5.1,2.7,1.9,2.7,5.1ZM206.2,14.7c0,2.1.4,4.1,1.7,4.1s1.6-2.2,1.6-4.2-.3-4.1-1.7-4.1-1.7,2.1-1.7,4.1Z"/>
    <path class="st1" d="M215.4,19.8v-4.3l-2.2-5.8h1.2l.9,2.5c.3.7.5,1.5.7,2.3h0c.2-.8.5-1.5.7-2.3l.9-2.5h1.2l-2.3,5.8v4.3h-1.1Z"/>
    <path class="st1" d="M171.1,22.9v4.3h2.8v-4.3h1.1v10.1h-1.1v-4.7h-2.8v4.7h-1.1v-10.1h1.1Z"/>
    <path class="st1" d="M182.1,27.8c0,3.8-1.3,5.2-2.9,5.2s-2.8-1.8-2.8-5.2,1.2-5.1,3-5.1,2.7,1.9,2.7,5.1ZM177.6,27.9c0,2.1.4,4.1,1.7,4.1s1.6-2.2,1.6-4.2-.3-4.1-1.7-4.1-1.7,2.1-1.7,4.1Z"/>
    <path class="st1" d="M183.3,31.6c.3.2.9.4,1.4.4,1,0,1.7-.7,1.7-1.7s-.5-1.5-1.3-2.1c-.8-.6-1.9-1.5-1.9-2.8s1.1-2.6,2.7-2.6,1.2.2,1.4.4l-.3,1c-.3-.2-.7-.3-1.2-.3-1,0-1.4.7-1.4,1.4,0,1,.5,1.4,1.5,2.1,1.2.9,1.7,1.8,1.7,2.9,0,1.7-1.2,2.8-2.8,2.8s-1.4-.2-1.7-.4l.3-1Z"/>
    <path class="st1" d="M188.9,23c.5-.1,1-.2,1.7-.2s1.7.2,2.2.7c.5.5.7,1.2.7,2.1s-.2,1.6-.6,2.1c-.6.7-1.5,1.1-2.4,1.1s-.3,0-.5,0v4.1h-1.1v-9.9ZM190,27.8c.1,0,.3,0,.4,0,1.1,0,1.9-.7,1.9-2.2s-.4-2-1.7-2-.5,0-.6,0v4Z"/>
    <path class="st1" d="M196,22.9v10.1h-1.1v-10.1h1.1Z"/>
    <path class="st1" d="M199,23.9h-1.8v-1h4.8v1h-1.8v9h-1.1v-9Z"/>
    <path class="st1" d="M203.6,29.9l-.7,3h-1.1l2.3-10.1h1.3l2.2,10.1h-1.1l-.7-3h-2.2ZM205.7,29l-.5-2.6c-.1-.7-.3-1.6-.4-2.3h0c-.1.8-.3,1.6-.4,2.3l-.5,2.6h1.9Z"/>
    <path class="st1" d="M208.9,22.9h1.1v9.1h2.8v1h-4v-10.1Z"/>
    <path class="st1" d="M215.2,22.9v10.1h-1.1v-10.1h1.1Z"/>
    <path class="st1" d="M217,23c.4-.1,1-.2,1.6-.2,1.1,0,1.8.3,2.4.8.8.7,1.4,2,1.4,4.1s-.6,3.6-1.2,4.2c-.7.7-1.6,1.1-2.8,1.1s-.9,0-1.3-.1v-9.9ZM218.2,32c.2,0,.3,0,.4,0,1.3,0,2.5-.9,2.5-4.3s-.8-3.9-2.4-3.9-.4,0-.5,0v8.2Z"/>
    <path class="st1" d="M224.6,29.9l-.7,3h-1.1l2.3-10.1h1.3l2.2,10.1h-1.1l-.7-3h-2.2ZM226.7,29l-.5-2.6c-.1-.7-.3-1.6-.4-2.3h0c-.1.8-.3,1.6-.4,2.3l-.5,2.6h1.9Z"/>
    <path class="st1" d="M229.9,23c.4-.1,1-.2,1.6-.2,1.1,0,1.8.3,2.4.8.8.7,1.4,2,1.4,4.1s-.6,3.6-1.2,4.2c-.7.7-1.6,1.1-2.8,1.1s-.9,0-1.3-.1v-9.9ZM231,32c.2,0,.3,0,.4,0,1.3,0,2.5-.9,2.5-4.3s-.8-3.9-2.4-3.9-.4,0-.5,0v8.2Z"/>
  </g>
</svg>